<svg width="240" height="66" viewBox="0 0 240 66" fill="none" xmlns="http://www.w3.org/2000/svg">
<g clip-path="url(#clip0_340_41)">
<path d="M82.361 24.9124C80.2323 23.7638 78.5745 22.182 77.35 20.1672C76.1444 18.1524 75.5227 15.8551 75.5227 13.313C75.5227 10.7709 76.1255 8.47361 77.35 6.45877C78.5557 4.44394 80.2323 2.8622 82.361 1.71355C84.4897 0.564907 86.8634 0 89.5196 0C91.7425 0 93.777 0.395435 95.5667 1.18631C97.3563 1.97718 98.8822 3.10699 100.107 4.57575L96.2825 8.11583C94.5494 6.101 92.383 5.103 89.8021 5.103C88.2009 5.103 86.788 5.46077 85.5258 6.15749C84.2825 6.85421 83.3029 7.83338 82.6059 9.07618C81.9089 10.319 81.551 11.7501 81.551 13.3506C81.551 14.9512 81.9089 16.3635 82.6059 17.6063C83.3029 18.8491 84.2825 19.8282 85.5258 20.525C86.7692 21.2217 88.2009 21.5795 89.8021 21.5795C92.383 21.5795 94.5306 20.5626 96.2825 18.529L100.107 22.0502C98.8822 23.5378 97.3563 24.6864 95.5478 25.4773C93.7393 26.2682 91.7048 26.6448 89.4819 26.6448C86.8634 26.6448 84.4897 26.0799 82.361 24.9312V24.9124Z" fill="#003A70"/>
<path d="M120.565 20.6756H108.603L106.323 26.1929H100.22L111.692 0.433105H117.57L129.08 26.174H122.826L120.546 20.6568L120.565 20.6756ZM118.681 16.1564L114.593 6.30814L110.505 16.1564H118.681Z" fill="#003A70"/>
<path d="M148.879 1.58175C150.556 2.33496 151.855 3.42711 152.76 4.82055C153.664 6.21399 154.116 7.87105 154.116 9.79174C154.116 11.7124 153.664 13.3318 152.76 14.7441C151.855 16.1564 150.556 17.2297 148.879 17.9829C147.202 18.7361 145.224 19.1127 142.945 19.1127H137.764V26.2117H131.812V0.433105H142.964C145.243 0.433105 147.221 0.80971 148.898 1.58175H148.879ZM146.694 13.0682C147.617 12.2962 148.088 11.204 148.088 9.77291C148.088 8.34181 147.617 7.21199 146.694 6.43995C145.752 5.66791 144.396 5.27248 142.606 5.27248H137.746V14.198H142.606C144.396 14.198 145.752 13.8026 146.694 13.0305V13.0682Z" fill="#003A70"/>
<path d="M175.742 5.29131H167.51V0.433105H189.947V5.29131H181.714V26.174H175.761V5.29131H175.742Z" fill="#003A70"/>
<path d="M208.823 20.6756H196.86L194.581 26.1929H188.477L199.95 0.433105H205.827L217.337 26.174H211.083L208.804 20.6568L208.823 20.6756ZM206.939 16.1564L202.851 6.30814L198.763 16.1564H206.939Z" fill="#003A70"/>
<path d="M220.031 0.433105H225.984V21.3158H238.888V26.174H220.012V0.433105H220.031Z" fill="#003A70"/>
<path d="M158.336 0H164.289V26.174H158.336V0Z" fill="#003A70"/>
<path d="M81.2118 64.5313C79.441 63.5521 78.047 62.2152 77.0486 60.5016C76.0501 58.7881 75.5415 56.8674 75.5415 54.7207C75.5415 52.5741 76.0501 50.6534 77.0486 48.9398C78.047 47.2263 79.4599 45.8893 81.2307 44.9102C83.0203 43.931 85.0172 43.4414 87.2213 43.4414C88.9355 43.4414 90.518 43.7239 91.9497 44.3076C93.3814 44.8913 94.587 45.7387 95.6043 46.8685L93.5509 48.8457C91.8932 47.0945 89.8209 46.2283 87.3531 46.2283C85.7142 46.2283 84.226 46.5861 82.9073 47.3204C81.5886 48.0548 80.5525 49.0716 79.799 50.3521C79.0454 51.6514 78.6875 53.0825 78.6875 54.6831C78.6875 56.2836 79.0643 57.7147 79.799 59.014C80.5525 60.3133 81.5698 61.3113 82.9073 62.0457C84.226 62.7801 85.7142 63.1567 87.3531 63.1567C89.8021 63.1567 91.8743 62.2716 93.5509 60.5204L95.6043 62.4976C94.6059 63.6274 93.3814 64.4936 91.9308 65.0774C90.4991 65.6611 88.9167 65.9624 87.1836 65.9624C84.9795 65.9624 82.9826 65.4728 81.2118 64.4936V64.5313Z" fill="#003A70"/>
<path d="M117.777 64.5313C116.006 63.5521 114.612 62.2152 113.614 60.5016C112.615 58.7881 112.107 56.8674 112.107 54.7207C112.107 52.5741 112.615 50.6534 113.614 48.9398C114.612 47.2263 116.025 45.8893 117.796 44.9102C119.585 43.931 121.582 43.4414 123.786 43.4414C125.501 43.4414 127.083 43.7239 128.515 44.3076C129.947 44.8913 131.152 45.7387 132.169 46.8685L130.116 48.8457C128.458 47.0945 126.386 46.2283 123.918 46.2283C122.279 46.2283 120.791 46.5861 119.472 47.3204C118.154 48.0548 117.118 49.0716 116.364 50.3521C115.611 51.6514 115.253 53.0825 115.253 54.6831C115.253 56.2836 115.629 57.7147 116.364 59.014C117.118 60.3133 118.135 61.3113 119.472 62.0457C120.791 62.7801 122.279 63.1567 123.918 63.1567C126.367 63.1567 128.44 62.2716 130.116 60.5204L132.169 62.4976C131.171 63.6274 129.947 64.4936 128.496 65.0774C127.064 65.6611 125.482 65.9624 123.749 65.9624C121.545 65.9624 119.548 65.4728 117.777 64.4936V64.5313Z" fill="#003A70"/>
<path d="M195.391 65.7553L195.353 49.6931L187.385 63.0626H185.934L177.965 49.7684V65.7365H174.951V43.7051H177.532L186.725 59.1835L195.786 43.7051H198.367L198.405 65.7365H195.372L195.391 65.7553Z" fill="#003A70"/>
<path d="M233.35 60.2378H221.632L219.202 65.755H215.962L225.946 43.7236H229.074L239.096 65.755H235.78L233.35 60.2378ZM232.238 57.7145L227.491 46.9248L222.744 57.7145H232.257H232.238Z" fill="#003A70"/>
<path d="M150.932 43.7051H154.078V65.7365H150.932V43.7051Z" fill="#003A70"/>
<path d="M239.981 33.5366H76.6907V35.5891H239.981V33.5366Z" fill="#D7282F"/>
<path d="M55.6106 35.0808V45.5316C55.6106 46.4731 55.0831 47.3205 54.2543 47.7347L32.0251 58.9764C31.3281 59.3341 30.4992 59.3341 29.7833 58.9764L7.55411 47.7347C6.72523 47.3205 6.19775 46.4543 6.19775 45.5316V32.727L11.9811 28.8668C12.2637 28.6785 12.6405 28.6785 12.923 28.8668L38.3359 45.814C39.6357 46.6802 41.35 46.5108 42.4615 45.3998L54.2166 33.6497L55.6295 35.062L55.6106 35.0808Z" fill="#596F99"/>
<path d="M54.1978 13.9722L55.6106 15.3844V29.7519H50.2794L51.7111 31.183L40.5965 42.2929C40.3139 42.5753 39.8618 42.613 39.5415 42.4058L18.7817 28.5656L30.1036 21.0147C30.3861 20.8264 30.7629 20.8264 31.0455 21.0147L39.5981 26.7202C40.2574 27.1533 41.124 27.078 41.6891 26.5131L54.2166 13.991L54.1978 13.9722Z" fill="#335384"/>
<path d="M55.6107 9.01998V10.0745H50.2795L51.7112 11.5056L40.7284 22.4648C40.4459 22.7472 40.0314 22.7849 39.6923 22.5589L32.3642 17.6819C31.2716 16.9475 29.8399 16.9475 28.7473 17.6819L15.5981 26.4568L14.2418 25.5529C13.1492 24.8186 11.7175 24.8186 10.606 25.5529L6.16016 28.5093V9.01998C6.16016 7.64538 7.27162 6.55322 8.62797 6.55322H53.1052C54.066 6.55322 54.8948 7.0993 55.3093 7.89017C55.4788 8.22911 55.5919 8.62455 55.5919 9.01998H55.6107Z" fill="#003A70"/>
<path d="M56.854 0.35791H4.93564C2.20408 0.35791 0 2.56105 0 5.29143V47.6971C0 49.5613 1.05495 51.2749 2.71272 52.1034L28.6719 65.1339C30.0659 65.8307 31.7049 65.8307 33.0989 65.1339L59.0581 52.1034C60.7159 51.2749 61.7708 49.5613 61.7708 47.6971V5.29143C61.7708 2.56105 59.5667 0.35791 56.8352 0.35791H56.854ZM59.7174 46.6803C59.7174 48.2244 58.8697 49.6367 57.4945 50.3522L32.7975 63.1944C31.5918 63.8158 30.179 63.8158 28.9733 63.1944L4.2763 50.3522C2.9011 49.6367 2.05338 48.2244 2.05338 46.6803V6.55306C2.05338 4.2746 3.89953 2.42924 6.17896 2.42924H55.573C56.9859 2.42924 58.2292 3.14479 58.9827 4.21811C59.4348 4.87717 59.7174 5.68687 59.7174 6.55306V46.6991V46.6803Z" fill="#D7282F"/>
</g>
<defs>
<clipPath id="clip0_340_41">
<rect width="240" height="66" fill="white"/>
</clipPath>
</defs>
</svg>
