<svg width="337" height="42" viewBox="0 0 337 42" fill="none" xmlns="http://www.w3.org/2000/svg">
<g clip-path="url(#clip0_340_24)">
<path d="M9.60066 13.9894C10.5765 11.9729 11.93 10.429 13.6613 9.35776C15.3926 8.28649 17.3442 7.71935 19.5161 7.71935C22.1603 7.71935 24.3952 8.3495 26.2838 9.64133C28.1725 10.9332 29.5575 12.6661 30.4389 14.8716H39.0323C37.962 10.3345 35.7271 6.77411 32.359 4.12745C28.9909 1.48079 24.7414 0.188965 19.642 0.188965C15.7073 0.188965 12.2448 1.07119 9.25441 2.80412C6.26403 4.56856 3.96616 7.02617 2.32932 10.2085C1.13317 12.5085 0.409182 14.9977 0.0629272 17.7073H8.43599C8.68781 16.3525 9.03406 15.1237 9.60066 13.9894Z" fill="#3176BB"/>
<path d="M26.2839 32.4847C24.3952 33.7765 22.1603 34.4066 19.5162 34.4066C17.3442 34.4066 15.3926 33.871 13.6613 32.7682C11.93 31.697 10.5765 30.1531 9.60069 28.1366C9.00262 26.8763 8.59341 25.4899 8.37306 23.9775H0C0.314777 26.8763 1.07024 29.5229 2.32935 31.9175C3.96619 35.0998 6.29554 37.5574 9.28592 39.3219C12.2763 41.0863 15.7388 41.9685 19.6421 41.9685C24.7415 41.9685 28.9909 40.6452 32.3591 38.0301C35.7272 35.3834 37.9621 31.823 39.0323 27.2859H30.4389C29.5575 29.4914 28.1725 31.2243 26.2839 32.5162V32.4847Z" fill="#3176BB"/>
<path d="M74.791 2.67817C77.9073 4.47412 80.3625 6.93173 82.1567 10.1455C83.951 13.3278 84.8638 16.9512 84.8638 20.9842C84.8638 25.0173 83.951 28.6407 82.1567 31.8545C80.3625 35.0683 77.9073 37.5574 74.791 39.3533C71.6747 41.1493 68.2121 42.0315 64.3719 42.0315C60.5316 42.0315 57.069 41.1493 53.9527 39.3533C50.8364 37.5574 48.3812 35.0683 46.587 31.8545C44.7927 28.6407 43.8799 25.0173 43.8799 20.9842C43.8799 16.9512 44.7927 13.3593 46.587 10.1455C48.3812 6.96324 50.8364 4.47412 53.9527 2.67817C57.069 0.882221 60.5316 0 64.3719 0C68.2121 0 71.6747 0.882221 74.791 2.67817ZM58.0448 9.16879C56.2191 10.2401 54.8026 11.8155 53.7639 13.832C52.7251 15.8485 52.2215 18.2431 52.2215 20.9527C52.2215 23.6624 52.7251 26.0255 53.7639 28.0735C54.8026 30.1215 56.2191 31.6654 58.0448 32.7367C59.8705 33.808 61.9795 34.3751 64.3719 34.3751C66.7642 34.3751 68.8732 33.8395 70.6989 32.7367C72.5246 31.6654 73.9411 30.09 74.9798 28.0735C76.0186 26.057 76.5222 23.6624 76.5222 20.9527C76.5222 18.2431 76.0186 15.88 74.9798 13.832C73.9411 11.7839 72.5246 10.2401 70.6989 9.16879C68.8732 8.09752 66.7642 7.53038 64.3719 7.53038C61.9795 7.53038 59.8705 8.06602 58.0448 9.16879Z" fill="#002856"/>
<path d="M125.722 41.5904H117.538L99.1862 13.7059V41.5904H91.002V0.598633H99.1862L117.538 28.7037V0.598633H125.722V41.6219V41.5904Z" fill="#002856"/>
<path d="M159.749 36.171C158.71 37.9355 157.168 39.3533 155.122 40.4246C153.076 41.4958 150.589 42.0315 147.63 42.0315C144.671 42.0315 142.122 41.5274 139.855 40.5506C137.557 39.5739 135.732 38.1245 134.378 36.2655C132.993 34.4066 132.238 32.2325 132.017 29.7749H140.737C140.926 31.4448 141.587 32.8312 142.751 33.934C143.916 35.0367 145.427 35.6039 147.316 35.6039C149.015 35.6039 150.337 35.1628 151.219 34.249C152.1 33.3353 152.572 32.1695 152.572 30.7201C152.572 29.4283 152.195 28.3886 151.471 27.5694C150.747 26.7502 149.802 26.057 148.669 25.5529C147.536 25.0487 145.993 24.4816 144.042 23.8199C141.492 22.9692 139.415 22.1185 137.778 21.2993C136.141 20.4801 134.756 19.2513 133.623 17.6759C132.49 16.1005 131.923 14.021 131.923 11.4688C131.923 7.93996 133.182 5.16726 135.732 3.11925C138.25 1.07124 141.618 0.0629883 145.805 0.0629883C149.991 0.0629883 153.58 1.10275 156.161 3.21378C158.742 5.2933 160.19 8.0975 160.536 11.5634H151.722C151.502 10.0825 150.873 8.88519 149.865 7.93996C148.858 6.99472 147.473 6.5221 145.742 6.5221C144.231 6.5221 143.003 6.93171 142.09 7.7194C141.146 8.5071 140.705 9.67289 140.705 11.1853C140.705 12.3826 141.052 13.3908 141.775 14.1785C142.499 14.9662 143.412 15.6279 144.514 16.132C145.616 16.6361 147.127 17.2033 149.015 17.8334C151.628 18.7472 153.768 19.6294 155.437 20.4486C157.074 21.2678 158.49 22.4966 159.655 24.1035C160.819 25.7419 161.386 27.8529 161.386 30.4996C161.386 32.5791 160.851 34.5326 159.812 36.2655L159.749 36.171Z" fill="#002856"/>
<path d="M195.193 0.598633V7.08925H183.861V41.5904H175.677V7.08925H164.408V0.598633H195.162H195.193Z" fill="#002856"/>
<path d="M221.099 41.5904L211.53 25.6159H207.942V41.5904H199.757V0.598633H215.37C220.123 0.598633 223.743 1.76442 226.262 4.09601C228.748 6.42759 230.007 9.48385 230.007 13.2648C230.007 16.3526 229.157 18.9677 227.426 21.0472C225.695 23.1268 223.208 24.5446 219.966 25.2378L230.196 41.6219H221.131L221.099 41.5904ZM207.942 19.976H214.678C219.368 19.976 221.697 17.8965 221.697 13.7689C221.697 11.7839 221.131 10.24 219.997 9.13727C218.864 8.03449 217.07 7.46735 214.678 7.46735H207.942V19.9445V19.976Z" fill="#002856"/>
<path d="M243.385 0.598633V24.6391C243.385 27.8529 244.078 30.2791 245.494 31.886C246.911 33.4929 248.957 34.2806 251.633 34.2806C254.308 34.2806 256.291 33.4929 257.708 31.886C259.124 30.2791 259.817 27.8529 259.817 24.6391V0.598633H267.938V24.6391C267.938 28.4201 267.245 31.6339 265.829 34.249C264.412 36.8642 262.461 38.8177 259.974 40.078C257.487 41.3698 254.654 42 251.475 42C246.565 42 242.63 40.5191 239.703 37.5889C236.775 34.6587 235.296 30.3421 235.296 24.6391V0.598633H243.417H243.385Z" fill="#002856"/>
<path d="M308.166 0.598633L294.285 27.2543V41.5904H286.038V27.2543L272.093 0.598633H281.505L290.224 18.5581L298.943 0.598633H308.166Z" fill="#002856"/>
<path d="M335.269 17.7075H312.573V23.9776H335.269V17.7075Z" fill="#3176BB"/>
<path d="M337 35.0366H312.573V41.5903H337V35.0366Z" fill="#3176BB"/>
<path d="M337 0.598633H312.573V7.08926H337V0.598633Z" fill="#3176BB"/>
</g>
<defs>
<clipPath id="clip0_340_24">
<rect width="337" height="42" fill="white"/>
</clipPath>
</defs>
</svg>
