<svg width="341" height="53" viewBox="0 0 341 53" fill="none" xmlns="http://www.w3.org/2000/svg">
<g clip-path="url(#clip0_340_143)">
<path d="M0 53V0L26.5225 26.5133L0 53Z" fill="#F5B335"/>
<path d="M61.0284 41.4401C59.994 43.1635 58.4822 44.5687 56.44 45.6027C54.4242 46.6632 51.9577 47.167 49.0667 47.167C46.1757 47.167 43.6561 46.6897 41.4017 45.7087C39.1473 44.7278 37.3437 43.3491 35.9911 41.4931C34.6384 39.6637 33.8693 37.5162 33.6836 35.0769H42.2769C42.4626 36.7208 43.1257 38.0729 44.2396 39.16C45.3535 40.247 46.8653 40.8038 48.7219 40.8038C50.3928 40.8038 51.6924 40.3531 52.5942 39.4516C53.496 38.5502 53.9468 37.4101 53.9468 36.0049C53.9468 34.7588 53.5755 33.6982 52.8594 32.8763C52.1433 32.0544 51.215 31.3916 50.1011 30.9144C48.9871 30.4106 47.4753 29.8538 45.5127 29.191C42.993 28.3426 40.9243 27.5207 39.3329 26.6987C37.7416 25.8768 36.3624 24.6837 35.2485 23.1195C34.1345 21.5552 33.551 19.5137 33.551 16.9949C33.551 13.5217 34.7976 10.7908 37.2907 8.77578C39.7838 6.76078 43.0991 5.77979 47.2101 5.77979C51.3211 5.77979 54.8751 6.8138 57.4213 8.85532C59.9674 10.9234 61.3997 13.6542 61.7445 17.1009H53.0451C52.8064 15.6427 52.1964 14.4496 51.215 13.5217C50.2337 12.5937 48.881 12.1165 47.1571 12.1165C45.6718 12.1165 44.4783 12.5142 43.55 13.283C42.6482 14.0784 42.1708 15.192 42.1708 16.6767C42.1708 17.8698 42.5156 18.8508 43.2317 19.6197C43.9479 20.3886 44.8231 21.0514 45.9105 21.5287C46.9979 22.0324 48.4832 22.5892 50.3398 23.199C52.939 24.127 55.0343 24.9754 56.6521 25.7708C58.27 26.5662 59.6492 27.7593 60.7896 29.3766C61.9301 30.9674 62.5136 33.0619 62.5136 35.6602C62.5136 37.7283 62.0097 39.6107 60.9753 41.3606L61.0284 41.4401Z" fill="#3D7CC9"/>
<path d="M97.709 8.45782C100.786 10.2077 103.199 12.6734 104.976 15.802C106.753 18.9306 107.628 22.5098 107.628 26.4603C107.628 30.4108 106.753 33.9901 104.976 37.1452C103.199 40.3002 100.786 42.766 97.709 44.5159C94.6323 46.2657 91.2109 47.1407 87.4447 47.1407C83.6785 47.1407 80.2571 46.2657 77.1805 44.5159C74.1039 42.766 71.6904 40.3002 69.9134 37.1452C68.1364 33.9901 67.2611 30.4108 67.2611 26.4603C67.2611 22.5098 68.1364 18.9306 69.9134 15.802C71.6904 12.6469 74.1039 10.2077 77.1805 8.45782C80.2571 6.70795 83.6785 5.83301 87.4447 5.83301C91.2109 5.83301 94.6323 6.70795 97.709 8.45782ZM81.212 14.874C79.4084 15.9346 78.0292 17.4723 76.9949 19.4873C75.987 21.4758 75.4831 23.8355 75.4831 26.4868C75.4831 29.1382 75.987 31.4978 76.9949 33.4863C78.0027 35.4748 79.4084 37.0126 81.212 38.0996C83.0155 39.1602 85.0842 39.6904 87.4447 39.6904C89.8052 39.6904 91.9005 39.1602 93.6775 38.0996C95.4811 37.0391 96.8602 35.5013 97.8946 33.4863C98.9025 31.4978 99.4064 29.1382 99.4064 26.4868C99.4064 23.8355 98.9025 21.4758 97.8946 19.4873C96.8868 17.4988 95.4811 15.9611 93.6775 14.874C91.874 13.8135 89.8052 13.2832 87.4447 13.2832C85.0842 13.2832 82.989 13.8135 81.212 14.874Z" fill="#3D7CC9"/>
<path d="M121.791 40.5918H135.344V46.7693H113.729V6.38965H121.791V40.5918Z" fill="#3D7CC9"/>
<path d="M147.916 6.38965V30.066C147.916 33.2211 148.606 35.6073 150.011 37.1715C151.391 38.7623 153.406 39.5577 156.058 39.5577C158.711 39.5577 160.647 38.7623 162.026 37.1715C163.432 35.5807 164.121 33.2211 164.121 30.066V6.38965H172.131V30.066C172.131 33.8044 171.442 36.9594 170.036 39.5312C168.63 42.103 166.721 44.012 164.254 45.2846C161.787 46.5307 159.002 47.167 155.873 47.167C151.019 47.167 147.147 45.7088 144.256 42.8189C141.365 39.9289 139.906 35.6603 139.906 30.066V6.38965H147.916Z" fill="#3D7CC9"/>
<path d="M206.664 6.38965V12.8059H195.498V46.7693H187.435V12.8059H176.348V6.38965H206.664Z" fill="#3D7CC9"/>
<path d="M219.209 6.38965V46.7693H211.146V6.38965H219.209Z" fill="#3D7CC9"/>
<path d="M255.73 8.45782C258.807 10.2077 261.22 12.6734 262.997 15.802C264.774 18.9306 265.649 22.5098 265.649 26.4603C265.649 30.4108 264.774 33.9901 262.997 37.1452C261.22 40.3002 258.807 42.766 255.73 44.5159C252.653 46.2657 249.232 47.1407 245.466 47.1407C241.7 47.1407 238.278 46.2657 235.202 44.5159C232.125 42.766 229.711 40.3002 227.934 37.1452C226.157 33.9901 225.282 30.4108 225.282 26.4603C225.282 22.5098 226.157 18.9306 227.934 15.802C229.711 12.6469 232.125 10.2077 235.202 8.45782C238.278 6.70795 241.7 5.83301 245.466 5.83301C249.232 5.83301 252.653 6.70795 255.73 8.45782ZM239.233 14.874C237.43 15.9346 236.05 17.4723 235.016 19.4873C234.008 21.4758 233.504 23.8355 233.504 26.4868C233.504 29.1382 234.008 31.4978 235.016 33.4863C236.024 35.4748 237.43 37.0126 239.233 38.0996C241.037 39.1602 243.105 39.6904 245.466 39.6904C247.826 39.6904 249.922 39.1602 251.699 38.0996C253.502 37.0391 254.881 35.5013 255.916 33.4863C256.95 31.4713 257.428 29.1382 257.428 26.4868C257.428 23.8355 256.924 21.4758 255.916 19.4873C254.908 17.4988 253.502 15.9611 251.699 14.874C249.895 13.8135 247.826 13.2832 245.466 13.2832C243.105 13.2832 241.01 13.8135 239.233 14.874Z" fill="#3D7CC9"/>
<path d="M305.937 46.7693H297.874L279.786 19.3281V46.7693H271.723V6.38965H279.786L297.874 34.0695V6.38965H305.937V46.7693Z" fill="#3D7CC9"/>
<path d="M339.462 41.4401C338.427 43.1635 336.916 44.5687 334.873 45.6027C332.858 46.6632 330.391 47.167 327.5 47.167C324.609 47.167 322.089 46.6897 319.835 45.7087C317.581 44.7278 315.777 43.3491 314.424 41.4931C313.072 39.6372 312.303 37.5162 312.117 35.0769H320.71C320.896 36.7208 321.559 38.0729 322.673 39.16C323.787 40.247 325.299 40.8038 327.155 40.8038C328.826 40.8038 330.126 40.3531 331.028 39.4516C331.929 38.5502 332.38 37.4101 332.38 36.0049C332.38 34.7588 332.009 33.6982 331.293 32.8763C330.577 32.0544 329.648 31.3916 328.534 30.9144C327.42 30.4106 325.909 29.8538 323.946 29.191C321.426 28.3426 319.358 27.5207 317.766 26.6987C316.175 25.8768 314.796 24.6837 313.682 23.1195C312.568 21.5552 311.984 19.5137 311.984 16.9949C311.984 13.5217 313.231 10.7908 315.724 8.77578C318.217 6.76078 321.532 5.77979 325.643 5.77979C329.754 5.77979 333.308 6.8138 335.855 8.85532C338.401 10.9234 339.833 13.6542 340.178 17.1009H331.478C331.24 15.6427 330.63 14.4496 329.648 13.5217C328.667 12.5937 327.314 12.1165 325.59 12.1165C324.105 12.1165 322.912 12.5142 321.983 13.283C321.082 14.0784 320.604 15.192 320.604 16.6767C320.604 17.8698 320.949 18.8508 321.665 19.6197C322.381 20.3886 323.256 21.0514 324.344 21.5287C325.431 22.0324 326.917 22.5892 328.773 23.199C331.372 24.127 333.468 24.9754 335.085 25.7708C336.703 26.5662 338.083 27.7593 339.223 29.3766C340.363 30.9674 340.947 33.0619 340.947 35.6602C340.947 37.7283 340.443 39.6107 339.409 41.3606L339.462 41.4401Z" fill="#3D7CC9"/>
</g>
<defs>
<clipPath id="clip0_340_143">
<rect width="341" height="53" fill="white"/>
</clipPath>
</defs>
</svg>
